<svg id="icon" xmlns="http://www.w3.org/2000/svg" viewBox="0 -20 420 730">
    <style>
        .stroke {
            stroke: #000;
        }
        .fill {
            fill: #000;
        }
        [data-bs-theme="dark"] {
            .stroke {
            stroke: #fff;
            }
            .fill {
            fill: #fff;
            }
        }
    </style>

    <path class="fill stroke" stroke-width="20" d="M400,90a35,35,0,0,1,15,66.63V200c0,.19,0,.37,0,.56,103.47,7.65,185,94,185,199.44V800H200V400c0-105.42,81.56-191.79,185-199.44,0-.19,0-.37,0-.56V156.63A35,35,0,0,1,400,90m0-10a45,45,0,0,0-25,82.41v29.07A210,210,0,0,0,190,400V800a10,10,0,0,0,10,10H600a10,10,0,0,0,10-10V400A210,210,0,0,0,425,191.48V162.41A45,45,0,0,0,400,80Z" transform="translate(-190 -80)"/>
    <line class="stroke" x1="170" y1="620" x2="250" y2="620" fill="none" stroke-linecap="round" stroke-miterlimit="10" stroke-width="20"/>
    <circle class="stroke" cx="210" cy="420" r="100" fill="none" stroke-miterlimit="10" stroke-width="20"/>
    <path class="stroke fill" d="M400,400a99.8,99.8,0,0,0-75.49,34.41,90,90,0,1,0,173.7,46.68A100,100,0,0,0,400,400Zm29.58,70.08a25,25,0,1,1,25-25A25,25,0,0,1,429.58,470.08Z" transform="translate(-190 -80)"/>
    <circle class="stroke" cx="239.58" cy="365.08" r="25" fill="none" />
</svg>
