<svg xmlns="http://www.w3.org/2000/svg" shape-rendering="geometricPrecision" viewBox="0 0 800 175.45"><g id="Calque_7" data-name="Calque 7"><rect y="165.45" width="800" height="10" fill="#120f46"/></g><g id="Calque_6" data-name="Calque 6"><rect x="577.9" y="125.45" width="76" height="50" fill="#120f46"/><rect x="618.9" y="105.45" width="35" height="20" fill="#120f46"/><rect x="577.9" y="90.45" width="4" height="35" fill="#120f46"/></g><g id="Calque_5" data-name="Calque 5"><polygon points="540 85.45 520 65.45 520 175.45 540 175.45 540 85.45" fill="#120f46"/></g><g id="Calque_4" data-name="Calque 4"><rect x="450.17" y="75.45" width="60" height="100" fill="#120f46"/><polygon points="510 20.45 450.17 75.45 510.17 75.45 510 20.45" fill="#120f46"/></g><g id="Calque_3" data-name="Calque 3"><rect x="347.85" y="75" width="51.09" height="100.45" fill="#120f46"/><rect x="355.66" y="40" width="35" height="35" fill="#120f46"/><polygon points="373.4 0 368.4 40 378.4 40 373.4 0" fill="#120f46"/></g><g id="Calque_2" data-name="Calque 2"><rect x="180" y="95.45" width="40" height="80" fill="#120f46"/><rect x="180" y="64.55" width="30.9" height="30.9" fill="#120f46"/><rect x="180" y="29.55" width="4" height="35" fill="#120f46"/></g><g id="Calque_1" data-name="Calque 1"><rect x="71.59" y="105.45" width="40" height="40" fill="#120f46"/><rect x="71.59" y="145.45" width="90" height="30" fill="#120f46"/><rect x="121.59" y="65.45" width="40" height="80" fill="#120f46"/><path d="M111.59,90a40,40,0,0,0-40,40h40Z" transform="translate(0 -24.55)" fill="#120f46"/><path d="M161.59,50a40,40,0,0,0-40,40h40Z" transform="translate(0 -24.55)" fill="#120f46"/></g></svg>