<svg id="Moon" xmlns="http://www.w3.org/2000/svg" shape-rendering="geometricPrecision" viewBox="0 0 660 660"><g id="Calque_3" data-name="Calque 3"><circle cx="330" cy="330" r="330" fill="#fff9ce" opacity="0.1"/></g><g id="Calque_3_-_copie_2" data-name="Calque 3 - copie 2"><circle cx="330" cy="330" r="270" fill="#fff9ce" opacity="0.1"/></g><g id="Calque_3_-_copie" data-name="Calque 3 - copie"><circle cx="330" cy="330" r="230" fill="#fff9ce" opacity="0.1"/></g><g id="Calque_1" data-name="Calque 1"><circle cx="330" cy="330" r="200" fill="#fff9ce"/><path d="M535.61,253a214,214,0,0,1,28.17,106.46c0,118.74-96.26,215-215,215a214.73,214.73,0,0,1-60.73-8.72A199.06,199.06,0,0,0,400,600c110.46,0,200-89.54,200-200A199.45,199.45,0,0,0,535.61,253Z" transform="translate(-70 -70)" fill="#f9b00a" opacity="0.25"/></g><g id="Calque_2" data-name="Calque 2"><circle cx="363.39" cy="251.87" r="50" fill="#f9b00a" opacity="0.25"/><path d="M399.48,358.61a53.77,53.77,0,0,1,61.89-78.18,50,50,0,0,0-61.89,78.18Z" transform="translate(-70 -70)" fill="#f9b00a" opacity="0.25"/><circle cx="239.35" cy="301.87" r="25" fill="#f9b00a" opacity="0.25"/><path d="M292.39,390.24a26.89,26.89,0,0,1,30.95-39.09,25,25,0,0,0-30.95,39.09Z" transform="translate(-70 -70)" fill="#f9b00a" opacity="0.25"/><circle cx="377.47" cy="393.11" r="40" fill="#f9b00a" opacity="0.25"/><path d="M420.35,492.51A43,43,0,0,1,469.86,430a40,40,0,0,0-49.51,62.55Z" transform="translate(-70 -70)" fill="#f9b00a" opacity="0.25"/><circle cx="463.49" cy="314.41" r="15" fill="#f9b00a" opacity="0.25"/><path d="M523.32,395.43A16.12,16.12,0,0,1,541.89,372a15,15,0,0,0-18.57,23.45Z" transform="translate(-70 -70)" fill="#f9b00a" opacity="0.25"/></g></svg>