<svg id="Stars" xmlns="http://www.w3.org/2000/svg" shape-rendering="geometricPrecision" viewBox="0 0 1920 1069.26"><g id="Stars-2" data-name="Stars"><polygon points="1338.71 1042.79 1341.05 1053.68 1351.94 1056.03 1341.05 1058.36 1338.71 1069.26 1336.37 1058.36 1325.47 1056.03 1336.37 1053.68 1338.71 1042.79" fill="#e4d285"/><polygon points="1549.04 970.34 1550.91 979.05 1559.63 980.92 1550.91 982.79 1549.04 991.51 1547.17 982.79 1538.45 980.92 1547.17 979.05 1549.04 970.34" fill="#e4d285"/><polygon points="1459.27 717.73 1461.14 726.45 1469.85 728.32 1461.14 730.19 1459.27 738.91 1457.39 730.19 1448.68 728.32 1457.39 726.45 1459.27 717.73" fill="#e4d285"/><circle cx="1135.26" cy="994.98" r="2.65" fill="#e4d285"/><circle cx="1312.76" cy="922.82" r="2.65" fill="#e4d285"/><circle cx="1606.74" cy="821.23" r="2.65" fill="#e4d285"/><circle cx="1665.54" cy="945.83" r="2.65" fill="#e4d285"/><circle cx="1741.09" cy="592.85" r="5.29" fill="#e4d285"/><circle cx="1914.71" cy="900.88" r="5.29" fill="#e4d285"/><circle cx="997.33" cy="573.66" r="5.29" fill="#e4d285"/><circle cx="987.14" cy="917.53" r="5.29" fill="#e4d285"/><polygon points="1053.19 762.82 1055.53 773.72 1066.43 776.06 1055.53 778.4 1053.19 789.29 1050.85 778.4 1039.96 776.06 1050.85 773.72 1053.19 762.82" fill="#e4d285"/><polygon points="1167.52 610.04 1169.39 618.76 1178.11 620.63 1169.39 622.5 1167.52 631.22 1165.65 622.5 1156.93 620.63 1165.65 618.76 1167.52 610.04" fill="#e4d285"/><circle cx="1253.93" cy="738.91" r="2.65" fill="#e4d285"/><circle cx="1178.11" cy="850.19" r="5.29" fill="#e4d285"/></g><g id="Stars_-_copie" data-name="Stars - copie"><polygon points="572.98 959.6 574.85 968.31 583.56 970.18 574.85 972.05 572.98 980.77 571.1 972.05 562.39 970.18 571.1 968.31 572.98 959.6" fill="#e4d285"/><polygon points="801.94 826.37 804.28 837.26 815.17 839.6 804.28 841.94 801.94 852.84 799.6 841.94 788.7 839.6 799.6 837.26 801.94 826.37" fill="#e4d285"/><polygon points="632.95 679.88 634.82 688.6 643.54 690.47 634.82 692.34 632.95 701.06 631.08 692.34 622.36 690.47 631.08 688.6 632.95 679.88" fill="#e4d285"/><circle cx="83.53" cy="1004.53" r="2.65" fill="#e4d285"/><circle cx="294.37" cy="945.66" r="2.65" fill="#e4d285"/><circle cx="457.83" cy="990.94" r="2.65" fill="#e4d285"/><circle cx="899.39" cy="714.46" r="2.65" fill="#e4d285"/><circle cx="899.39" cy="997.63" r="2.65" fill="#e4d285"/><circle cx="689.47" cy="935.09" r="2.65" fill="#e4d285"/><circle cx="765.02" cy="582.11" r="5.29" fill="#e4d285"/><circle cx="2.65" cy="657.16" r="2.65" fill="#e4d285"/><circle cx="507.34" cy="797.34" r="5.29" fill="#e4d285"/><circle cx="398.3" cy="638.58" r="2.65" fill="#e4d285"/><polygon points="77.13 752.08 79.47 762.98 90.36 765.32 79.47 767.66 77.13 778.55 74.79 767.66 63.89 765.32 74.79 762.98 77.13 752.08" fill="#e4d285"/><circle cx="254.15" cy="728.32" r="2.65" fill="#e4d285"/><polygon points="318.19 829.01 320.06 837.73 328.78 839.6 320.06 841.48 318.19 850.19 316.32 841.48 307.61 839.6 316.32 837.73 318.19 829.01" fill="#e4d285"/></g><g id="Stars_-_copie_3" data-name="Stars - copie 3"><polygon points="1583.32 108.71 1585.66 119.61 1596.56 121.95 1585.66 124.29 1583.32 135.18 1580.98 124.29 1570.09 121.95 1580.98 119.61 1583.32 108.71" fill="#e4d285"/><polygon points="1366.42 487.65 1368.77 498.55 1379.66 500.89 1368.77 503.23 1366.42 514.13 1364.09 503.23 1353.19 500.89 1364.09 498.55 1366.42 487.65" fill="#e4d285"/><polygon points="1549.04 401.96 1550.91 410.68 1559.63 412.55 1550.91 414.42 1549.04 423.14 1547.17 414.42 1538.45 412.55 1547.17 410.68 1549.04 401.96" fill="#e4d285"/><circle cx="1059.6" cy="446.9" r="2.65" fill="#e4d285"/><circle cx="1270.44" cy="388.03" r="2.65" fill="#e4d285"/><circle cx="1606.74" cy="252.86" r="2.65" fill="#e4d285"/><circle cx="1875.45" cy="156.83" r="2.65" fill="#e4d285"/><circle cx="1875.45" cy="440" r="2.65" fill="#e4d285"/><circle cx="1665.54" cy="377.46" r="2.65" fill="#e4d285"/><circle cx="1366.43" cy="29.88" r="5.29" fill="#e4d285"/><circle cx="1741.09" cy="24.48" r="5.29" fill="#e4d285"/><circle cx="997.33" cy="5.29" r="5.29" fill="#e4d285"/><circle cx="978.71" cy="99.53" r="2.65" fill="#e4d285"/><circle cx="1410.02" cy="258" r="5.29" fill="#e4d285"/><polygon points="1053.19 194.45 1055.53 205.35 1066.43 207.69 1055.53 210.03 1053.19 220.92 1050.85 210.03 1039.96 207.69 1050.85 205.35 1053.19 194.45" fill="#e4d285"/><polygon points="1167.52 41.67 1169.39 50.39 1178.11 52.26 1169.39 54.13 1167.52 62.85 1165.65 54.13 1156.93 52.26 1165.65 50.39 1167.52 41.67" fill="#e4d285"/><circle cx="1253.93" cy="143.92" r="2.65" fill="#e4d285"/><polygon points="1205.5 244.91 1207.37 253.63 1216.09 255.5 1207.37 257.38 1205.5 266.09 1203.63 257.38 1194.91 255.5 1203.63 253.63 1205.5 244.91" fill="#e4d285"/><polygon points="1746.38 462.57 1748.72 473.47 1759.62 475.81 1748.72 478.15 1746.38 489.04 1744.04 478.15 1733.15 475.81 1744.04 473.47 1746.38 462.57" fill="#e4d285"/></g><g id="Stars_-_copie_2" data-name="Stars - copie 2"><polygon points="723.75 100.77 725.63 109.49 734.34 111.36 725.63 113.23 723.75 121.95 721.88 113.23 713.17 111.36 721.88 109.49 723.75 100.77" fill="#e4d285"/><polygon points="362.64 463.68 364.98 474.57 375.88 476.91 364.98 479.25 362.64 490.15 360.3 479.25 349.41 476.91 360.3 474.57 362.64 463.68" fill="#e4d285"/><polygon points="572.98 391.22 574.85 399.94 583.56 401.81 574.85 403.68 572.98 412.4 571.1 403.68 562.39 401.81 571.1 399.94 572.98 391.22" fill="#e4d285"/><polygon points="517.92 138.48 519.8 147.2 528.51 149.07 519.8 150.94 517.92 159.66 516.05 150.94 507.34 149.07 516.05 147.2 517.92 138.48" fill="#e4d285"/><circle cx="83.53" cy="436.16" r="2.65" fill="#e4d285"/><circle cx="294.37" cy="377.29" r="2.65" fill="#e4d285"/><circle cx="457.83" cy="422.57" r="2.65" fill="#e4d285"/><circle cx="899.39" cy="146.09" r="2.65" fill="#e4d285"/><circle cx="899.39" cy="429.26" r="2.65" fill="#e4d285"/><circle cx="689.47" cy="366.72" r="2.65" fill="#e4d285"/><circle cx="202.04" cy="531.4" r="5.29" fill="#e4d285"/><circle cx="390.36" cy="19.14" r="5.29" fill="#e4d285"/><circle cx="938.64" cy="321.77" r="5.29" fill="#e4d285"/><circle cx="11.08" cy="338.42" r="5.29" fill="#e4d285"/><circle cx="2.65" cy="88.79" r="2.65" fill="#e4d285"/><circle cx="594.02" cy="231.51" r="5.29" fill="#e4d285"/><polygon points="77.13 183.71 79.47 194.61 90.36 196.95 79.47 199.29 77.13 210.18 74.79 199.29 63.89 196.95 74.79 194.61 77.13 183.71" fill="#e4d285"/><polygon points="191.46 30.93 193.33 39.65 202.04 41.52 193.33 43.39 191.46 52.11 189.58 43.39 180.87 41.52 189.58 39.65 191.46 30.93" fill="#e4d285"/><circle cx="318.19" cy="121.95" r="2.65" fill="#e4d285"/><polygon points="281.13 210.34 283.01 219.05 291.72 220.92 283.01 222.79 281.13 231.51 279.26 222.79 270.55 220.92 279.26 219.05 281.13 210.34" fill="#e4d285"/><polygon points="770.32 451.83 772.66 462.73 783.55 465.07 772.66 467.41 770.32 478.3 767.98 467.41 757.08 465.07 767.98 462.73 770.32 451.83" fill="#e4d285"/></g></svg>