<svg xmlns="http://www.w3.org/2000/svg" xmlns:xlink="http://www.w3.org/1999/xlink" viewBox="0 0 376 600"><defs><linearGradient id="Dégradé_sans_nom_5" x1="200" y1="420.33" x2="200" y2="2" gradientTransform="matrix(1, 0, 0, -1, 0, 602)" gradientUnits="userSpaceOnUse"><stop offset="0" stop-color="#fffcec"/><stop offset="1" stop-color="#d9d9d9" stop-opacity="0"/></linearGradient></defs><g id="Beam"><path d="M104,181.67H296L388,600H12Z" transform="translate(-12)" opacity="0.4" fill="url(#Dégradé_sans_nom_5)"/><path d="M142,181.67H258L320,600H80Z" transform="translate(-12)" opacity="0.4" fill="url(#Dégradé_sans_nom_5)"/></g><g id="Calque_6" data-name="Calque 6"><circle cx="72" cy="152" r="10" fill="#f5e729"/><path d="M87.74,144.33a11.4,11.4,0,0,1,3.17.46A9.9,9.9,0,0,0,84,142a10,10,0,0,0-7.37,16.74,11.17,11.17,0,0,1-.39-2.91A11.5,11.5,0,0,1,87.74,144.33Z" transform="translate(-12)" fill="#fff" opacity="0.7"/><circle cx="304" cy="152" r="10" fill="#f5e729"/><path d="M319.74,144.33a11.4,11.4,0,0,1,3.17.46A9.9,9.9,0,0,0,316,142a10,10,0,0,0-7.37,16.74,11.17,11.17,0,0,1-.39-2.91A11.5,11.5,0,0,1,319.74,144.33Z" transform="translate(-12)" fill="#fff" opacity="0.7"/></g><g id="Body"><polygon points="321.33 168.33 54.67 168.33 91 135 285 135 321.33 168.33" fill="#1a808f"/><polygon points="285 135 260.36 135 273 168.33 321.33 168.33 285 135" fill="#1d1e1b" opacity="0.15"/><rect x="41.33" y="168.33" width="293.33" height="13.33" rx="6.67" fill="#e94078"/><path d="M340,168.33H285.05a6.67,6.67,0,1,1,0,13.34H340a6.67,6.67,0,1,0,0-13.34Z" transform="translate(-12)" fill="#1d1e1b" opacity="0.15"/><polygon points="291.18 201.67 85 201.67 54.67 181.67 321.33 181.67 291.18 201.67" fill="#fcc239"/><polygon points="273.05 181.67 260 201.67 291.18 201.67 321.33 181.67 273.05 181.67" fill="#1d1e1b" opacity="0.1"/><rect x="83" y="201.67" width="210" height="5" rx="2" fill="#f6e826"/><path d="M303.18,201.67h-31.3a1.92,1.92,0,0,1,1.82,2v1a1.92,1.92,0,0,1-1.82,2h31.3a1.92,1.92,0,0,0,1.82-2v-1A1.92,1.92,0,0,0,303.18,201.67Z" transform="translate(-12)" fill="#1d1e1b" opacity="0.15"/></g><g id="Phares"><circle cx="120" cy="152" r="10" fill="#f5e729"/><path d="M135.74,144.33a11.4,11.4,0,0,1,3.17.46A9.9,9.9,0,0,0,132,142a10,10,0,0,0-7.37,16.74,11.17,11.17,0,0,1-.39-2.91A11.5,11.5,0,0,1,135.74,144.33Z" transform="translate(-12)" fill="#fff" opacity="0.7"/><circle cx="188" cy="152" r="10" fill="#f5e729"/><path d="M203.74,144.33a11.4,11.4,0,0,1,3.17.46A9.9,9.9,0,0,0,200,142a10,10,0,0,0-7.37,16.74,11.17,11.17,0,0,1-.39-2.91A11.5,11.5,0,0,1,203.74,144.33Z" transform="translate(-12)" fill="#fff" opacity="0.7"/><circle cx="256" cy="151.67" r="10" fill="#f5e729"/><path d="M271.74,144a11.4,11.4,0,0,1,3.17.45,10,10,0,0,0-14.28,14,11.17,11.17,0,0,1-.39-2.91A11.5,11.5,0,0,1,271.74,144Z" transform="translate(-12)" fill="#fff" opacity="0.7"/></g><g id="Cockpit"><rect x="88" y="130" width="200" height="5" rx="2" fill="#0eacd8" opacity="0.6"/><path d="M298.13,130H272.36a1.94,1.94,0,0,1,1.86,2v1a1.94,1.94,0,0,1-1.86,2h25.77a1.94,1.94,0,0,0,1.87-2v-1A1.94,1.94,0,0,0,298.13,130Z" transform="translate(-12)" fill="#0eacd8" opacity="0.2"/><polygon points="285 130 91 130 88 100 288 100 285 130" fill="#0aacd8" opacity="0.35"/><path d="M200,0C144.73,0,93.69,39.89,100,100H300C306.31,39.89,255.27,0,200,0Z" transform="translate(-12)" fill="#0aacd8" opacity="0.35"/><polygon points="263 100 260.35 130 284.96 130 288 100 263 100" fill="#0aacd8" opacity="0.15"/><path d="M200,0c41.49,0,79.74,39.89,75,100h25C306.31,39.89,255.27,0,200,0Z" transform="translate(-12)" fill="#0aacd8" opacity="0.15"/></g></svg>